<svg width="100" height="100" viewBox="0 0 100 100" fill="none" xmlns="http://www.w3.org/2000/svg">
  <circle cx="50" cy="50" r="45" fill="#396AE520"/>
  <path d="M50 20C35.088 20 23 32.088 23 47C23 61.912 35.088 74 50 74C64.912 74 77 61.912 77 47C77 32.088 64.912 20 50 20Z" fill="#396AE5"/>
  <path d="M50 25C37.85 25 28 34.85 28 47C28 59.15 37.85 69 50 69C62.15 69 72 59.15 72 47C72 34.85 62.15 25 50 25Z" fill="white"/>
  <path d="M50 30C40.612 30 33 37.612 33 47C33 56.388 40.612 64 50 64C59.388 64 67 56.388 67 47C67 37.612 59.388 30 50 30Z" fill="#396AE5"/>
  <path d="M50 35C43.373 35 38 40.373 38 47C38 53.627 43.373 59 50 59C56.627 59 62 53.627 62 47C62 40.373 56.627 35 50 35Z" fill="white"/>
  <path d="M50 40C46.134 40 43 43.134 43 47C43 50.866 46.134 54 50 54C53.866 54 57 50.866 57 47C57 43.134 53.866 40 50 40Z" fill="#396AE5"/>
  <path d="M15 35L20 40M85 35L80 40M15 60L20 55M85 60L80 55M35 15L40 20M65 15L60 20M35 80L40 75M65 80L60 75" stroke="#396AE5" strokeWidth="2" strokeLinecap="round"/>
</svg> 